name analog
datacolumns 19
datarows 23
range 0.0 0.011
endheader
time	ground_force_vx	ground_force_vy	ground_force_vz	ground_force_px	ground_force_py	ground_force_pz	l_ground_force_vx	l_ground_force_vy	l_ground_force_vz	l_ground_force_px	l_ground_force_py	l_ground_force_pz	ground_torque_x	ground_torque_y	ground_torque_z	l_ground_torque_x	l_ground_torque_y	l_ground_torque_z
0.0	-0.0	-0.0	-0.0	-0.0	-0.0	-0.0	1.5134482383728027	-19.452709197998047	-836.4149780273438	-0.0	-0.0	-0.0	-0.0	-0.0	-0.0	220455.359375	-3714.228759765625	1516.369384765625
0.0005	-0.0	-0.0	-0.0	-0.0	-0.0	-0.0	1.4746291637420654	-20.47903060913086	-837.0480346679688	-0.0	-0.0	-0.0	-0.0	-0.0	-0.0	220062.65625	-3999.624755859375	1512.609375
0.001	-0.0	-0.0	-0.0	-0.0	-0.0	-0.0	1.4913148880004885	-20.612342834472656	-837.3507690429688	-0.0	-0.0	-0.0	-0.0	-0.0	-0.0	220173.5625	-4361.81982421875	1597.6832275390625
0.0015	-0.0	-0.0	-0.0	-0.0	-0.0	-0.0	1.1700836420059204	-20.011009216308597	-838.2467041015625	-0.0	-0.0	-0.0	-0.0	-0.0	-0.0	220298.015625	-4586.76123046875	1549.5440673828125
0.002	-0.0	-0.0	-0.0	-0.0	-0.0	-0.0	0.5998063087463379	-20.17096710205078	-839.0113525390625	-0.0	-0.0	-0.0	-0.0	-0.0	-0.0	220533.8125	-4687.291015625	1472.8587646484375
0.0025	-0.0	-0.0	-0.0	-0.0	-0.0	-0.0	0.1226315200328826	-20.103572845458984	-839.0113525390625	-0.0	-0.0	-0.0	-0.0	-0.0	-0.0	220765.90625	-4829.9716796875	1240.8704833984375
0.003	-0.0	-0.0	-0.0	-0.0	-0.0	-0.0	-0.6550127863883972	-19.78765869140625	-839.4132080078125	-0.0	-0.0	-0.0	-0.0	-0.0	-0.0	221015.5	-4720.63525390625	1028.268310546875
0.0035	-0.0	-0.0	-0.0	-0.0	-0.0	-0.0	-2.381542444229126	-18.6188907623291	-840.0050659179688	-0.0	-0.0	-0.0	-0.0	-0.0	-0.0	221106.0625	-4675.02685546875	538.9391479492188
0.004	-0.0	-0.0	-0.0	-0.0	-0.0	-0.0	-2.6784584522247314	-16.584394454956055	-839.5628051757812	-0.0	-0.0	-0.0	-0.0	-0.0	-0.0	221538.8125	-4796.8623046875	88.60450744628906
0.0045000000000000005	-0.0	-0.0	-0.0	-0.0	-0.0	-0.0	-3.0560433864593506	-14.501873970031738	-839.2251586914062	-0.0	-0.0	-0.0	-0.0	-0.0	-0.0	221301.890625	-5204.39794921875	11.390701293945312
0.005	-0.0	-0.0	-0.0	-0.0	-0.0	-0.0	-2.5356056690216064	-12.379668235778809	-838.5842895507812	-0.0	-0.0	-0.0	-0.0	-0.0	-0.0	221686.5625	-5384.095703125	-76.65068054199219
0.0055	-0.0	-0.0	-0.0	-0.0	-0.0	-0.0	-1.7742156982421875	-10.419805526733398	-837.4784545898438	-0.0	-0.0	-0.0	-0.0	-0.0	-0.0	221841.359375	-5878.544921875	8.391179084777832
0.006	-0.0	-0.0	-0.0	-0.0	-0.0	-0.0	-1.2419509887695312	-8.619028091430664	-838.2446899414062	-0.0	-0.0	-0.0	-0.0	-0.0	-0.0	222098.171875	-5986.60009765625	68.51374053955078
0.006500000000000001	-0.0	-0.0	-0.0	-0.0	-0.0	-0.0	-0.2645506858825683	-6.977413177490234	-837.334228515625	-0.0	-0.0	-0.0	-0.0	-0.0	-0.0	222547.84375	-6700.5498046875	135.23463439941406
0.007	-0.0	-0.0	-0.0	-0.0	-0.0	-0.0	0.9771093130111694	-5.281893730163574	-839.0113525390625	-0.0	-0.0	-0.0	-0.0	-0.0	-0.0	223313.5625	-7400.1298828125	224.97267150878903
0.0075	-0.0	-0.0	-0.0	-0.0	-0.0	-0.0	1.809266209602356	-4.044269561767578	-840.27001953125	-0.0	-0.0	-0.0	-0.0	-0.0	-0.0	224117.34375	-7958.47509765625	302.3974914550781
0.008	-0.0	-0.0	-0.0	-0.0	-0.0	-0.0	2.643723249435425	-3.2139201164245605	-842.9933471679688	-0.0	-0.0	-0.0	-0.0	-0.0	-0.0	224931.671875	-8295.8134765625	808.1156005859375
0.0085	-0.0	-0.0	-0.0	-0.0	-0.0	-0.0	3.105381727218628	-3.532867431640625	-844.3875122070312	-0.0	-0.0	-0.0	-0.0	-0.0	-0.0	225637.546875	-8769.9873046875	933.0318603515624
0.009000000000000001	-0.0	-0.0	-0.0	-0.0	-0.0	-0.0	3.530519485473633	-3.4269237518310547	-848.2991333007812	-0.0	-0.0	-0.0	-0.0	-0.0	-0.0	226307.5625	-9339.029296875	986.472412109375
0.0095	-0.0	-0.0	-0.0	-0.0	-0.0	-0.0	3.991985321044922	-3.497473955154419	-850.1142578125	-0.0	-0.0	-0.0	-0.0	-0.0	-0.0	227276.265625	-9743.3642578125	1259.67333984375
0.01	-0.0	-0.0	-0.0	-0.0	-0.0	-0.0	4.3820905685424805	-4.080166816711426	-854.0950317382812	-0.0	-0.0	-0.0	-0.0	-0.0	-0.0	228196.125	-9988.3828125	1384.4986572265625
0.0105	-0.0	-0.0	-0.0	-0.0	-0.0	-0.0	4.222335338592529	-4.257253646850586	-858.9129638671875	-0.0	-0.0	-0.0	-0.0	-0.0	-0.0	229160.203125	-10019.84765625	1461.4422607421875
0.011	-0.0	-0.0	-0.0	-0.0	-0.0	-0.0	4.5601487159729	-4.381374359130859	-862.4004516601562	-0.0	-0.0	-0.0	-0.0	-0.0	-0.0	230185.84375	-10290.6552734375	1526.654052734375
